<?xml version="1.0" encoding="utf-8"?>
<svg viewBox="0 0 32 32" width="32" height="32" xmlns="http://www.w3.org/2000/svg">
  <path fill-rule="evenodd" d="M 19.091 4.723 L 19.37 4.289 L 19.642 3.861 L 20.257 2.9 C 20.333 2.784 20.303 2.626 20.189 2.545 C 20.076 2.467 19.919 2.5 19.847 2.618 L 19.188 3.646 L 18.909 4.078 L 18.629 4.518 C 17.697 4.145 16.7 3.954 15.696 3.957 C 14.648 3.957 13.653 4.158 12.761 4.518 L 12.482 4.078 L 12.207 3.647 L 11.544 2.618 C 11.472 2.5 11.317 2.467 11.202 2.545 C 11.088 2.626 11.058 2.784 11.134 2.901 L 11.748 3.863 L 12.021 4.289 L 12.301 4.723 C 10.206 5.738 8.79 7.662 8.79 9.864 L 22.602 9.864 C 22.602 7.662 21.186 5.738 19.091 4.723 Z M 12.738 7.808 C 12.32 7.801 11.988 7.456 11.996 7.038 C 11.996 6.612 12.326 6.269 12.738 6.269 C 13.144 6.269 13.475 6.612 13.475 7.038 C 13.475 7.463 13.144 7.808 12.738 7.808 Z M 18.654 7.808 C 18.237 7.798 17.909 7.454 17.916 7.038 C 17.916 6.612 18.247 6.269 18.654 6.269 C 19.065 6.269 19.395 6.612 19.395 7.038 C 19.403 7.456 19.071 7.801 18.654 7.808 Z M 8.897 10.888 L 22.603 10.888 L 22.603 22.185 C 22.603 23.082 21.904 23.812 21.041 23.812 L 19.914 23.812 C 19.954 23.951 19.973 24.095 19.973 24.239 L 19.973 27.491 C 19.973 28.341 19.31 29.031 18.493 29.031 C 17.675 29.031 17.014 28.341 17.014 27.491 L 17.014 24.239 C 17.014 24.09 17.034 23.947 17.072 23.812 L 14.323 23.812 C 14.362 23.951 14.382 24.095 14.382 24.239 L 14.382 27.491 C 14.382 28.341 13.717 29.031 12.9 29.031 C 12.083 29.031 11.421 28.341 11.421 27.491 L 11.421 24.239 C 11.421 24.09 11.443 23.947 11.479 23.812 L 10.352 23.812 C 9.491 23.812 8.79 23.082 8.79 22.187 L 8.79 10.887 L 8.896 10.887 Z M 6.327 10.888 C 7.143 10.888 7.805 11.578 7.805 12.429 L 7.805 19.016 C 7.805 19.867 7.141 20.557 6.326 20.557 C 5.508 20.557 4.845 19.867 4.845 19.016 L 4.845 12.429 C 4.845 11.578 5.508 10.888 6.326 10.888 Z M 25.07 10.888 C 25.886 10.888 26.549 11.578 26.549 12.429 L 26.549 19.016 C 26.549 19.867 25.886 20.557 25.07 20.557 C 24.253 20.557 23.59 19.867 23.59 19.016 L 23.59 12.429 C 23.59 11.578 24.253 10.888 25.07 10.888 Z" style="fill: rgb(164, 198, 57);" transform="matrix(1, 0, 0, 1, 0, 0)"/>
</svg>