<?xml version="1.0" encoding="utf-8"?>
<svg viewBox="0 0 32 32" width="32" height="32" xmlns="http://www.w3.org/2000/svg">
  <path fill="#252628" fill-rule="evenodd" d="M 27.077 22.017 C 26.44 23.42 26.132 24.043 25.309 25.285 C 24.158 27.016 22.534 29.174 20.525 29.19 C 18.74 29.208 18.282 28.041 15.859 28.056 C 13.437 28.068 12.931 29.21 11.145 29.194 C 9.136 29.176 7.601 27.231 6.45 25.498 C 3.234 20.659 2.896 14.978 4.88 11.955 C 6.291 9.811 8.514 8.555 10.608 8.555 C 12.734 8.555 14.073 9.709 15.834 9.709 C 17.541 9.709 18.583 8.553 21.045 8.553 C 22.907 8.553 24.879 9.555 26.284 11.286 C 21.679 13.781 22.427 20.277 27.077 22.017 Z M 19.179 6.618 C 20.072 5.483 20.752 3.88 20.507 2.244 C 19.044 2.342 17.333 3.262 16.337 4.46 C 15.429 5.546 14.681 7.16 14.973 8.728 C 16.571 8.778 18.221 7.833 19.179 6.618 Z" style="" transform="matrix(1, 0, 0, 1, 3.552713678800501e-15, 0)"/>
</svg>