<svg xmlns="http://www.w3.org/2000/svg" width="32" height="32"><g fill="none" fill-rule="evenodd"><path stroke="#252628" d="M15.143 17.857h11a1 1 0 0 1 1 1v6.477a1 1 0 0 1-1 1h-1.945v2.227l-4.274-2.123a1 1 0 0 0-.444-.104h-4.337a1 1 0 0 1-1-1v-6.477a1 1 0 0 1 1-1z"/><path fill="#252628" d="M4 3h24a1 1 0 0 1 1 1v16.184a1 1 0 0 1-1 1h-1.039V18.44H15.143a1 1 0 0 0-1 1v1.324H11.27l-5.538 3.552v-3.552H4a1 1 0 0 1-1-1V4a1 1 0 0 1 1-1z"/><path fill="#FEC41F" d="M5.786 13.235h1.348c.065.54.61.887 1.395.887.725 0 1.237-.35 1.237-.854 0-.425-.332-.67-1.15-.845l-.868-.185c-1.214-.254-1.81-.887-1.81-1.902 0-1.256 1.011-2.083 2.55-2.083 1.467 0 2.506.822 2.548 2.009H9.725c-.065-.527-.555-.878-1.229-.878-.697 0-1.159.324-1.159.832 0 .41.319.646 1.1.812l.803.171c1.339.282 1.916.859 1.916 1.893 0 1.344-1.03 2.166-2.701 2.166-1.589 0-2.618-.78-2.67-2.023zm13.742 1.852h-1.293v-4.456h-.074l-1.695 4.073h-.928l-1.7-4.073h-.073v4.456h-1.293V8.424h1.644l1.842 4.479h.084l1.847-4.48h1.639v6.664zm1.316-1.852h1.348c.065.54.61.887 1.395.887.725 0 1.237-.35 1.237-.854 0-.425-.332-.67-1.15-.845l-.868-.185c-1.214-.254-1.81-.887-1.81-1.902 0-1.256 1.012-2.083 2.55-2.083 1.468 0 2.507.822 2.548 2.009h-1.311c-.065-.527-.554-.878-1.228-.878-.698 0-1.16.324-1.16.832 0 .41.32.646 1.1.812l.803.171c1.34.282 1.916.859 1.916 1.893 0 1.344-1.03 2.166-2.701 2.166-1.589 0-2.618-.78-2.67-2.023z"/></g></svg>