<svg width="24px" height="24px" viewBox="0 0 24 24" version="1.1" xmlns="http://www.w3.org/2000/svg">
  <g stroke="none" stroke-width="1" fill="none" fill-rule="evenodd">
    <g transform="translate(-4.000000, -4.000000)">
      <g transform="translate(4.000000, 4.000000)">
        <circle fill="#FEC41F" cx="12" cy="12" r="12"></circle>
        <path d="M14.7692308,6.46153846 L16.1538462,6.46153846 L9.23076923,17.5384615 L7.84615385,17.5384615 L14.7692308,6.46153846 Z M8.53846154,10.6153846 C7.3914086,10.6153846 6.46153846,9.68551448 6.46153846,8.53846154 C6.46153846,7.3914086 7.3914086,6.46153846 8.53846154,6.46153846 C9.68551448,6.46153846 10.6153846,7.3914086 10.6153846,8.53846154 C10.6153846,9.68551448 9.68551448,10.6153846 8.53846154,10.6153846 Z M15.4615385,17.5384615 C14.3144855,17.5384615 13.3846154,16.6085914 13.3846154,15.4615385 C13.3846154,14.3144855 14.3144855,13.3846154 15.4615385,13.3846154 C16.6085914,13.3846154 17.5384615,14.3144855 17.5384615,15.4615385 C17.5384615,16.6085914 16.6085914,17.5384615 15.4615385,17.5384615 Z" id="Combined-Shape" fill="#FFFFFF"></path>
      </g>
    </g>
  </g>
</svg>
