<svg width="101" height="85" xmlns="http://www.w3.org/2000/svg" xmlns:xlink="http://www.w3.org/1999/xlink"><defs><path id="a" d="M21 1H1v23h20V1z"/><path id="c" d="M20 1H0v23h20V1z"/><path id="e" d="M0 86h102V1H0z"/></defs><g transform="translate(0 -1)" fill="none" fill-rule="evenodd"><g transform="translate(41)"><mask id="b" fill="#fff"><use xlink:href="#a"/></mask><path d="M5 13.498L5.037 19l5.745-1.36c3.455-.908 6.243-4.529 6.218-8.066C16.983 6.837 15.265 5 12.728 5c-.431 0-.88.054-1.334.161-3.45.807-6.313 4.368-6.385 7.939L5 13.498zM1.087 24L1 11.382l.186-.03c.823-4.738 4.65-8.995 9.315-10.085A9.773 9.773 0 0 1 12.745 1C17.497 1 20.968 4.584 21 9.52c.034 4.738-3.149 9.412-7.505 11.357l.03.195-1.779.43L1.087 24z" fill="#282D33" mask="url(#b)"/></g><g transform="translate(25)"><mask id="d" fill="#fff"><use xlink:href="#c"/></mask><path d="M10.62 17.747L15.963 19 16 13.462l-.01-.362c-.073-3.57-2.934-7.132-6.38-7.939A5.848 5.848 0 0 0 8.274 5C5.736 5 4.018 6.838 4 9.573c-.023 3.538 2.766 7.159 6.217 8.068l.403.106zM19.924 24l-12.19-2.856v-.17C3.263 19.09-.032 14.34 0 9.52.034 4.584 3.51 1 8.26 1c.74 0 1.495.09 2.25.267 4.652 1.087 8.47 5.326 9.308 10.048l.18.026.002 1.727L19.924 24z" fill="#282D33" mask="url(#d)"/></g><mask id="f" fill="#fff"><use xlink:href="#e"/></mask><path d="M4 35h79V24H4v11zm-4 4h87V20H0v19z" fill="#282D33" mask="url(#f)"/><path d="M6 82h75V39H6v43zm-4 4h83V35H2v51z" fill="#282D33" mask="url(#f)"/><path fill="#AEB5B6" mask="url(#f)" d="M8 31h29v-3H8zM10 78V43h67v35"/><path d="M48.881 28.87a3.004 3.004 0 0 1 4.235 4.26 3.005 3.005 0 0 1-4.244-.016 3.006 3.006 0 0 1 .01-4.243zM43 51.288l24.909 25.237a8.292 8.292 0 0 0 11.786.035l17.228-17.25c2.758-2.763 2.771-7.255.027-10.033L70.015 22H43v29.287z" fill="#FFC400" mask="url(#f)"/><path d="M50.995 30a.992.992 0 0 0-.703.29 1.013 1.013 0 0 0-.003 1.42c.382.387 1.04.384 1.418.008.39-.388.39-1.028 0-1.424a.996.996 0 0 0-.712-.294zm.008 6a4.974 4.974 0 0 1-3.552-1.478c-1.939-1.94-1.935-5.112.013-7.065A4.982 4.982 0 0 1 50.994 26c1.344 0 2.604.523 3.552 1.472 1.946 1.961 1.937 5.135-.017 7.075A4.976 4.976 0 0 1 51.003 36zM45 50.708l23.753 24.037a7.564 7.564 0 0 0 10.743.033l15.59-15.593a6.557 6.557 0 0 0 .026-9.233L69.455 24H45v26.708zm21.471 27.208L41 52.126V20h29.858l27.488 27.817c3.553 3.594 3.537 9.409-.037 12.984L81.163 77.96a10.341 10.341 0 0 1-14.692-.043z" fill="#282D33" mask="url(#f)"/><path d="M74.74 57h.954A6.302 6.302 0 0 0 82 50.698v-.133a6.303 6.303 0 0 0-6.306-6.304h-.955v-.957c0-3.48-2.82-6.304-6.302-6.304h-.133A6.306 6.306 0 0 0 62 43.305V57h12.74z" fill="#FFF" mask="url(#f)"/><path fill="#282D33" mask="url(#f)" d="M42 84h4V61h-4z"/></g></svg>
