<svg width="185px" height="33px" viewBox="0 0 185 33" xmlns="http://www.w3.org/2000/svg">
    <defs>
        <linearGradient x1="0.00814783704%" y1="50%" x2="100%" y2="50%" id="linearGradient-1">
            <stop stop-color="#00B4E6" offset="30%"></stop>
            <stop stop-color="#088CCB" offset="100%"></stop>
        </linearGradient>
    </defs>
    <g id="payment/discount" stroke="none" stroke-width="1" fill="none" fill-rule="evenodd" transform="translate(-64.000000, -84.000000)">
        <g id="Group" transform="translate(64.000000, 84.000000)">
            <g id="mir-logo" transform="translate(135.000000, 9.000000)">
                <g id="g5" fill="#4DB45E">
                    <path d="M13.473424,4.39148811e-16 L13.473424,0.00618046972 C13.4672435,0.00618046972 11.5203956,4.39148811e-16 11.0012361,1.86032138 C10.5253399,3.56613103 9.184178,8.27564895 9.14709518,8.40543881 L8.776267,8.40543881 C8.776267,8.40543881 7.40420272,3.5908529 6.92212608,1.85414091 C6.40296663,-0.00618046972 4.4499382,4.39148811e-16 4.4499382,4.39148811e-16 L0,-1.35306284e-07 L0,14.1532756 L4.4499382,14.1532756 L4.4499382,5.74783684 L4.63535229,5.74783684 L4.82076638,5.74783684 L7.41656366,14.1532756 L10.5067985,14.1532756 L13.1025958,5.75401731 L13.473424,5.75401731 L13.473424,14.1532756 L17.9233622,14.1532756 L17.9233622,-1.35306284e-07 L13.473424,4.39148811e-16 Z" id="path7"></path>
                </g>
                <g id="g9" transform="translate(19.839308, 0.000000)" fill="#4DB45E">
                    <path d="M9.88875155,0 C9.88875155,0 8.58467244,0.117428925 7.97280593,1.48331273 L4.82076638,8.40543881 L4.4499382,8.40543881 L4.4499382,0 L0,0 L0,14.1532756 L4.20271941,14.1532756 C4.20271941,14.1532756 5.56860321,14.0296663 6.18046972,12.6699629 L9.27070457,5.74783684 L9.64153276,5.74783684 L9.64153276,14.1532756 L14.091471,14.1532756 L14.091471,0 L9.88875155,0 Z" id="path11"></path>
                </g>
                <g id="g13" transform="translate(35.908529, 6.427689)" fill="#4DB45E">
                    <path d="M0,0 L0,7.72558714 L4.4499382,7.72558714 L4.4499382,3.21384425 L9.27070457,3.21384425 C11.3720643,3.21384425 13.1520396,1.87268232 13.8133498,0 L0,0 Z" id="path15"></path>
                </g>
                <g id="g17" transform="translate(35.228677, 0.000000)" fill="url(#linearGradient-1)">
                    <path d="M9.95055624,0 L0.0556242274,0 C0.550061805,2.6946848 2.5710754,4.8578492 5.18541409,5.56242274 C5.77873918,5.72311496 6.40296663,5.80964153 7.04573548,5.80964153 L14.6724351,5.80964153 C14.7404203,5.48825711 14.7713226,5.16069221 14.7713226,4.82076638 C14.7713226,2.15698393 12.6143387,0 9.95055624,0 Z" id="path24"></path>
                </g>
            </g>
            <g id="cards" transform="translate(0.000000, 8.000000)" fill-rule="nonzero">
                <g id="visa">
                    <polygon id="polygon9" fill="#00579F" points="21.3196053 15.1841442 17.3524344 15.1841442 19.8337873 0.455034622 23.8007413 0.455034622"></polygon>
                    <path d="M35.7009524,0.815119324 C34.9184519,0.517096647 33.6773416,0.188042958 32.1427122,0.188042958 C28.2250035,0.188042958 25.4661851,2.19360437 25.4492638,5.06095323 C25.4167229,7.17647689 27.4244971,8.35149013 28.9261517,9.05687294 C30.460998,9.77766713 30.9827372,10.2481306 30.9827372,10.8906183 C30.9671176,11.8773629 29.7424947,12.3322067 28.6003087,12.3322067 C27.0164341,12.3322067 26.1677672,12.0977039 24.8780624,11.5487257 L24.3556723,11.3133899 L23.8005244,14.6197547 C24.7309775,15.0266983 26.4452327,15.3878243 28.2250035,15.4036522 C32.3876368,15.4036522 35.0976439,13.4291218 35.1297509,10.3735042 C35.1455875,8.69678824 34.0854046,7.41202102 31.799731,6.36217314 C30.4121866,5.68823786 29.562435,5.23381055 29.562435,4.54425563 C29.5787054,3.91738753 30.2811552,3.27531631 31.8474577,3.27531631 C33.1371625,3.24386877 34.0847538,3.54147493 34.8026063,3.83928934 L35.1614241,3.99569398 L35.7009524,0.815119324 Z" id="path11" fill="#00579F"></path>
                    <path d="M40.9736646,9.96614409 C41.3003754,9.11997628 42.5575392,5.84505902 42.5575392,5.84505902 C42.5410518,5.87650655 42.8835991,4.98327157 43.0794954,4.43491817 L43.356744,5.70406576 C43.356744,5.70406576 44.1080051,9.22973026 44.2711436,9.96614409 C43.6511307,9.96614409 41.7572497,9.96614409 40.9736646,9.96614409 Z M45.8706378,0.455034622 L42.8020299,0.455034622 C41.8557402,0.455034622 41.136803,0.72119324 40.7285231,1.67711503 L34.835798,15.1839359 L38.9984313,15.1839359 C38.9984313,15.1839359 39.6837429,13.3660184 39.8310448,12.9744862 C40.2877022,12.9744862 44.3370931,12.9744862 44.9245651,12.9744862 C45.0384582,13.4916003 45.3979268,15.1839359 45.3979268,15.1839359 L49.0711448,15.1839359 L45.8706378,0.455034622 Z" id="path13" fill="#00579F"></path>
                    <path d="M14.038902,0.455034622 L10.1537341,10.4988778 L9.72918373,8.4618689 C9.01089736,6.11142589 6.75819858,3.55771935 4.24430475,2.28794698 L7.80297875,15.1685246 L11.998153,15.1685246 L18.2338592,0.455034622 L14.038902,0.455034622 Z" id="path15" fill="#00579F"></path>
                    <path d="M6.54603184,0.455034622 L0.163240662,0.455034622 L0.0979419015,0.752640776 C5.07691819,1.97492945 8.37439715,4.92120954 9.72918373,8.46249368 L8.3416393,1.6931512 C8.1132021,0.752432514 7.41118619,0.486065635 6.54603184,0.455034622 Z" id="path17" fill="#FAA61A"></path>
                </g>
            </g>
            <g id="mastercard" transform="translate(71.000000, 0.000000)" fill-rule="nonzero">
                <path d="M7.38941843,29.5676729 C7.26624284,29.4461439 7.12007103,29.3503957 6.95945227,29.2860284 C6.78546221,29.2173577 6.59987376,29.1828428 6.41282862,29.1843698 C6.30392153,29.18513 6.19524989,29.194604 6.0878542,29.2127009 C5.97322741,29.2303518 5.86125684,29.2622634 5.7545471,29.3076934 C5.64418085,29.3558357 5.54143781,29.4198395 5.4495711,29.4976784 C5.34676033,29.583007 5.26035617,29.6863532 5.19459117,29.8026544 C5.08055954,29.6126739 4.91770161,29.4567216 4.72296162,29.3510233 C4.51383125,29.2378794 4.27909212,29.1804859 4.0413486,29.1843698 C3.95198491,29.1849851 3.86281549,29.1927874 3.77470292,29.2077013 C3.68089798,29.224891 3.58925077,29.2522734 3.5013911,29.2893615 C3.40831085,29.3290993 3.32133974,29.3818431 3.24307809,29.4460158 C3.15563932,29.5172396 3.07974744,29.601564 3.0180958,29.6959962 L3.0180958,29.2743627 L2.29315286,29.2743627 L2.29315286,32.7224246 L3.02476194,32.7224246 L3.02476194,30.8109084 C3.02263494,30.6776137 3.0464062,30.5451738 3.09475643,30.4209391 C3.1372316,30.3138977 3.20069454,30.2164368 3.28140841,30.134295 C3.35973905,30.0600895 3.45288223,30.0032949 3.55472023,29.9676415 C3.66113153,29.9271134 3.77416286,29.9067677 3.88802733,29.9076462 C4.10446859,29.8953543 4.31496806,29.9810227 4.46131555,30.1409611 C4.60778982,30.3311033 4.6800596,30.5680534 4.66463288,30.8075753 L4.66463288,32.7257577 L5.39624197,32.7257577 L5.39624197,30.8109084 C5.39411496,30.6776137 5.41788623,30.5451738 5.46623646,30.4209391 C5.50871162,30.3138977 5.57217456,30.2164368 5.65288843,30.134295 C5.73121908,30.0600895 5.82436226,30.0032949 5.92620026,29.9676415 C6.03267352,29.9273369 6.14566274,29.9069988 6.25950736,29.9076462 C6.4754181,29.8956237 6.68529776,29.9812889 6.83112904,30.1409611 C6.97819757,30.3308712 7.05106652,30.5678434 7.0361129,30.8075753 L7.0361129,32.7257577 L7.76605545,32.7257577 L7.76605545,30.5592616 C7.76946329,30.3673409 7.73550174,30.1765901 7.66606332,29.9976391 C7.60358208,29.8372322 7.50950499,29.691016 7.38941843,29.5676729 Z" id="Shape" fill="#1D1D1B"></path>
                <path d="M11.2457816,29.6926631 C11.1249641,29.5410823 10.9725465,29.4176696 10.7991501,29.3310249 C10.6015658,29.2330592 10.3829883,29.184995 10.1625335,29.1910359 C9.7018072,29.1862455 9.25941578,29.3712784 8.93929645,29.7026623 C8.78040116,29.8676531 8.65578707,30.0625042 8.57265864,30.2759505 C8.3948504,30.7457626 8.3948504,31.2643571 8.57265864,31.7341691 C8.65538796,31.947818 8.78004986,32.1427439 8.93929645,32.3074573 C9.26135084,32.6372379 9.70497756,32.8198723 10.1658666,32.8124176 C10.385971,32.8186919 10.6043445,32.7718159 10.8024831,32.6757616 C10.9763731,32.5876695 11.1288306,32.4625177 11.2491147,32.3091238 L11.2491147,32.7224246 L11.9990556,32.7224246 L11.9990556,29.2743627 L11.2457816,29.2743627 L11.2457816,29.6926631 Z M11.2174505,31.4375258 C11.1703869,31.5672375 11.0978594,31.686228 11.0041339,31.7874982 C10.910449,31.887168 10.7969028,31.9660826 10.6708268,32.0191467 C10.5368029,32.0772982 10.3919407,32.1062707 10.2458603,32.10414 C10.0956495,32.1065305 9.94669924,32.0763994 9.80922798,32.0158136 C9.68257342,31.9607504 9.56898838,31.8795371 9.47592088,31.777499 C9.38570194,31.6751241 9.31609993,31.5562914 9.27093702,31.4275266 C9.22250618,31.2899668 9.19826101,31.1450597 9.19927599,30.9992269 C9.19798935,30.8533727 9.22224232,30.7084189 9.27093702,30.5709273 C9.31609689,30.4416601 9.38568782,30.3222806 9.47592088,30.2192883 C9.569542,30.1182953 9.68301511,30.0377294 9.80922798,29.9826403 C9.94645186,29.9212787 10.095576,29.8911124 10.2458603,29.8943139 C10.3919407,29.8921832 10.5368029,29.9211556 10.6708268,29.9793072 C10.7972458,30.0317458 10.9109157,30.1107463 11.0041339,30.2109556 C11.0974941,30.3118685 11.1699887,30.4302386 11.2174505,30.5592616 C11.2685016,30.7002668 11.2939002,30.8492717 11.2924446,30.9992269 C11.2940262,31.1486491 11.2686208,31.2971296 11.2174505,31.4375258 Z" id="Shape" fill="#1D1D1B"></path>
                <path d="M15.4554503,30.9975604 C15.1952557,30.812271 14.8915501,30.6974485 14.573853,30.6642533 L14.2172144,30.6109242 C14.1388872,30.5975919 14.0638931,30.5842596 13.9938986,30.5692608 C13.9315468,30.5555648 13.8711032,30.5342976 13.8139128,30.5059324 C13.7665887,30.4817871 13.7255143,30.446988 13.6939222,30.4042738 C13.6628054,30.360602 13.646987,30.307874 13.6489258,30.2542856 C13.6460218,30.1323617 13.7099402,30.0185869 13.8155793,29.9576422 C13.960888,29.8733561 14.1278788,29.8339278 14.2955416,29.8443178 C14.4023015,29.8436754 14.5088816,29.8531616 14.6138498,29.8726489 C14.7140981,29.8904723 14.8131638,29.9144039 14.9104932,29.94431 C14.9975013,29.9702779 15.0826831,30.0020123 15.1654731,30.0393025 C15.2321853,30.0691726 15.297271,30.1025499 15.3604578,30.1392946 L15.6837656,29.5526741 C15.4889977,29.4310508 15.2764635,29.340527 15.0538152,29.2843619 C14.8034417,29.2197911 14.5457704,29.1878622 14.2872089,29.1893694 C14.0868002,29.1864546 13.8870078,29.2122704 13.6939222,29.26603 C13.5321782,29.3110212 13.380177,29.3856092 13.2456242,29.4860127 C13.124829,29.577244 13.027675,29.6961147 12.9623132,29.8326521 C12.8939584,29.9768029 12.8597423,30.134767 12.862321,30.2942824 C12.8561825,30.5497389 12.9650793,30.7944507 13.1589643,30.9608966 C13.4118834,31.1537724 13.715118,31.2695108 14.032229,31.2942037 L14.3922006,31.3408667 C14.5512841,31.3549021 14.7056811,31.4020159 14.8454983,31.4791892 C14.9335645,31.5288351 14.9887365,31.6214226 14.9904869,31.7225033 C14.9889723,31.8547998 14.9119274,31.9745754 14.7921691,32.0308124 C14.6091108,32.1168293 14.4074735,32.155782 14.2055486,32.1441368 C14.0783348,32.1449651 13.9512629,32.1354904 13.8255786,32.1158057 C13.7213765,32.0982104 13.6188115,32.0720117 13.518936,32.0374786 C13.4329235,32.0079334 13.3498037,31.9705574 13.2706222,31.9258207 C13.2001044,31.8851027 13.1321997,31.8400184 13.0673049,31.7908313 L12.718999,32.3557868 C12.8396262,32.447306 12.9711844,32.5234418 13.1106348,32.5824357 C13.2410694,32.6385991 13.3759737,32.683753 13.5139364,32.717425 C13.6369482,32.7492645 13.7623554,32.7710017 13.8889069,32.7824199 C14.0055644,32.7940857 14.1088896,32.7990853 14.1988825,32.7990853 C14.4238618,32.8020957 14.6481809,32.7740558 14.8654967,32.7157585 C15.0451168,32.6703366 15.2146761,32.5917741 15.3654574,32.4841101 C15.4904972,32.3928663 15.5930889,32.2743159 15.6654337,32.1374707 C15.7374069,31.9967282 15.7740148,31.8405726 15.772092,31.6825065 C15.784118,31.4163023 15.666029,31.1608573 15.4554503,30.9975604 Z" id="Shape" fill="#1D1D1B"></path>
                <path d="M22.4982293,29.6876635 C22.3552792,29.5282155 22.1796366,29.4014572 21.9832698,29.3160261 C21.7726648,29.2261756 21.5456062,29.1813315 21.3166556,29.1843698 C21.0780391,29.1818588 20.8412855,29.2266041 20.6200438,29.3160261 C20.4154355,29.4005469 20.2308978,29.5271681 20.0784198,29.6876635 C19.9231633,29.8529537 19.8029804,30.0479675 19.7251142,30.2609517 C19.639556,30.4975676 19.5972196,30.7476343 19.6001241,30.9992269 C19.596192,31.2533608 19.639711,31.5059975 19.7284473,31.7441683 C19.8091448,31.9575683 19.9327997,32.1521263 20.0917521,32.31579 C20.2502026,32.4756493 20.4403831,32.6005439 20.6500414,32.6824278 C20.8772516,32.7711437 21.1194195,32.8152771 21.3633186,32.8124176 C21.6161721,32.8133822 21.8677733,32.7768776 22.1099265,32.7040928 C22.3559658,32.6264095 22.5830336,32.4981162 22.7765407,32.3274557 L22.4032368,31.7908313 C22.2600854,31.9057067 22.0990752,31.9963453 21.9266076,32.0591435 C21.7601664,32.1209335 21.5841861,32.1530837 21.4066486,32.154136 C21.2870855,32.1545925 21.168085,32.1377528 21.053343,32.10414 C20.9427062,32.0716436 20.8392243,32.018489 20.748367,31.9474856 C20.6536185,31.8725571 20.5738911,31.78039 20.5133855,31.6758403 C20.4442445,31.5520628 20.3990164,31.4163785 20.3800627,31.2758718 L22.9281955,31.2758718 C22.9281955,31.2325419 22.9365282,31.1875454 22.9398612,31.1392159 C22.9431943,31.0908864 22.9398612,31.0425569 22.9398612,30.9958939 C22.9433128,30.7450859 22.9021187,30.4956639 22.8182041,30.2592852 C22.7489643,30.0500875 22.6403552,29.8560619 22.4982293,29.6876635 Z M20.393395,30.7042501 C20.4113625,30.585155 20.445567,30.4690842 20.4950536,30.3592773 C20.5405916,30.2597337 20.6031976,30.1689267 20.6800391,30.0909651 C20.7564465,30.013956 20.8485208,29.9542782 20.9500178,29.9159789 C21.0644452,29.8728276 21.1860535,29.8518997 21.308323,29.854317 C21.5260577,29.8461136 21.7377838,29.9267138 21.8949435,30.0776328 C22.0572729,30.2491624 22.1585952,30.4693774 22.1832541,30.7042501 L20.393395,30.7042501 Z" id="Shape" fill="#1D1D1B"></path>
                <path d="M32.4974424,29.6926631 C32.2372684,29.3621413 31.8345091,29.1762524 31.4141943,29.1927024 C30.953468,29.187912 30.5110765,29.3729449 30.1909572,29.7043288 C30.0315683,29.8692541 29.9063954,30.0640933 29.8226529,30.2776171 C29.6448446,30.7474291 29.6448446,31.2660236 29.8226529,31.7358356 C29.905998,31.9495622 30.0312186,32.1444756 30.1909572,32.3091238 C30.3460648,32.4700551 30.5319598,32.5981413 30.7375809,32.6857609 C30.9514067,32.7769023 31.181764,32.8228603 31.4141943,32.8207502 C31.6342806,32.8268281 31.8526081,32.779962 32.0508108,32.6840943 C32.2244651,32.5956415 32.3768505,32.470549 32.4974424,32.3174565 L32.4974424,32.7307573 L33.2490499,32.7307573 L33.2490499,29.2743627 L32.4974424,29.2743627 L32.4974424,29.6926631 Z M32.4674447,31.4375258 C32.4210001,31.5671592 32.3490313,31.6861628 32.2557947,31.7874982 C32.1619809,31.8870186 32.0484684,31.9659097 31.9224876,32.0191467 C31.7890078,32.0771639 31.6447172,32.1061357 31.4991876,32.10414 C31.3484408,32.1065086 31.1989521,32.0763835 31.0608887,32.0158136 C30.9338777,31.9613816 30.8201672,31.8800785 30.7275816,31.777499 C30.6373627,31.6751241 30.5677607,31.5562914 30.5225978,31.4275266 C30.4741669,31.2899668 30.4499218,31.1450597 30.4509368,30.9992269 C30.4496501,30.8533727 30.4739031,30.7084189 30.5225978,30.5709273 C30.5677577,30.4416601 30.6373486,30.3222806 30.7275816,30.2192883 C30.8207126,30.1177383 30.9343116,30.037083 31.0608887,29.9826403 C31.3364847,29.8671834 31.6468917,29.8671834 31.9224876,29.9826403 C32.048807,30.0352608 32.1624405,30.1142362 32.2557947,30.2142887 C32.3486284,30.3152937 32.4205597,30.4336687 32.4674447,30.5625946 C32.5198537,30.703283 32.5458427,30.852437 32.5441053,31.00256 C32.5434432,31.1514517 32.5151905,31.298931 32.4607786,31.4375258 L32.4674447,31.4375258 Z" id="Shape" fill="#1D1D1B"></path>
                <path d="M18.6801965,32.035812 C18.5658077,32.0798288 18.4444512,32.1029712 18.3218913,32.10414 C18.2491362,32.1051403 18.1768207,32.0927111 18.1085748,32.0674762 C18.0450318,32.0430508 17.9879957,32.0042662 17.9419212,31.9541518 C17.8894484,31.8964037 17.8497029,31.8282686 17.8252638,31.7541675 C17.7945808,31.6589208 17.7799381,31.5592377 17.7819338,31.4591907 L17.7819338,29.9593088 L18.9901721,29.9593088 L18.9901721,29.2743627 L17.7819338,29.2743627 L17.7819338,28.2311115 L17.0269933,28.2311115 L17.0269933,29.2743627 L16.332048,29.2743627 L16.332048,29.9593088 L17.0203271,29.9593088 L17.0203271,31.4741896 C17.0203271,31.9324868 17.1286519,32.269127 17.3536342,32.4874431 C17.6006283,32.7152843 17.9298055,32.8326326 18.2652291,32.8124176 C18.466337,32.815399 18.6662893,32.7815088 18.8551827,32.7124254 C18.9654786,32.6699356 19.0724362,32.6192421 19.1751575,32.5607707 L18.9185111,31.9308203 C18.8411779,31.9704132 18.7616051,32.0054698 18.6801965,32.035812 Z" id="Shape" fill="#1D1D1B"></path>
                <path d="M25.4713287,29.1843698 C25.2740371,29.181256 25.0784261,29.2210606 24.8980404,29.3010273 C24.7220894,29.405502 24.5749007,29.5521179 24.4697408,29.7276603 L24.4697408,29.2743627 L23.7881278,29.2743627 L23.7881278,32.7224246 L24.4780735,32.7224246 L24.4780735,30.8309068 C24.4756622,30.6977667 24.4965299,30.5652289 24.5397353,30.439271 C24.5749132,30.3317516 24.6316163,30.2325212 24.7063889,30.1476273 C24.7773089,30.0683424 24.865761,30.0067112 24.9647019,29.9676415 C25.0706376,29.9252629 25.1839234,29.904305 25.298009,29.9059796 C25.3972081,29.9070958 25.4960387,29.9182631 25.5929858,29.9393104 C25.6445066,29.9486514 25.6952141,29.9620248 25.7446405,29.9793072 L25.9662897,29.2593639 C25.9060766,29.2404904 25.8448795,29.2249129 25.7829708,29.2127009 C25.6800094,29.1949798 25.5757977,29.185506 25.4713287,29.1843698 Z" id="Shape" fill="#1D1D1B"></path>
                <path d="M35.9271724,29.1843698 C35.7298661,29.1810957 35.5342209,29.2209073 35.3538842,29.3010273 C35.1775841,29.4050512 35.0302951,29.5517671 34.9255846,29.7276603 L34.9255846,29.2743627 L34.242305,29.2743627 L34.242305,32.7224246 L34.9339173,32.7224246 L34.9339173,30.8309068 C34.9318254,30.6979218 34.9521065,30.5655313 34.9939125,30.439271 C35.0298321,30.3320823 35.086455,30.2329922 35.1605661,30.1476273 C35.2314861,30.0683424 35.3199382,30.0067112 35.4188791,29.9676415 C35.5248148,29.9252629 35.6381006,29.904305 35.7521862,29.9059796 C35.8513853,29.9070958 35.9502159,29.9182631 36.047163,29.9393104 C36.0986303,29.9488909 36.1493197,29.9622596 36.1988177,29.9793072 L36.4204669,29.2593639 C36.3597467,29.24029 36.2979838,29.2247101 36.2354815,29.2127009 C36.1336393,29.1949939 36.0305361,29.1855196 35.9271724,29.1843698 Z" id="Shape" fill="#1D1D1B"></path>
                <path d="M39.4402293,27.8744729 L39.4402293,29.6926631 C39.1800553,29.3621413 38.777296,29.1762524 38.3569812,29.1927024 C37.8958702,29.1884371 37.4531618,29.3733507 37.1320776,29.7043288 C36.9737306,29.8697514 36.8491901,30.0644874 36.7654398,30.2776171 C36.5876315,30.7474291 36.5876315,31.2660236 36.7654398,31.7358356 C36.8488038,31.9491621 36.9733899,32.1439695 37.1320776,32.3091238 C37.4531618,32.6401019 37.8958702,32.8250155 38.3569812,32.8207502 C38.5770675,32.8268281 38.795395,32.779962 38.9935977,32.6840943 C39.1672521,32.5956415 39.3196374,32.470549 39.4402293,32.3174565 L39.4402293,32.7307573 L40.1918368,32.7307573 L40.1918368,27.8744729 L39.4402293,27.8744729 Z M39.4102316,31.4375258 C39.3637871,31.5671592 39.2918182,31.6861628 39.1985816,31.7874982 C39.1047678,31.8870186 38.9912553,31.9659097 38.8652745,32.0191467 C38.7317947,32.0771639 38.5875041,32.1061357 38.4419745,32.10414 C38.2912278,32.1065086 38.141739,32.0763835 38.0036757,32.0158136 C37.8796572,31.960353 37.7688744,31.8791123 37.6787012,31.777499 C37.5871832,31.6760694 37.5174204,31.5569621 37.4737174,31.4275266 C37.4247194,31.2900672 37.3999099,31.1451572 37.4003898,30.9992269 C37.3996379,30.8532741 37.4244554,30.7083175 37.4737174,30.5709273 C37.5175574,30.441056 37.5872921,30.3214298 37.6787012,30.2192883 C37.7694096,30.1186859 37.880087,30.03809 38.0036757,29.9826403 C38.2792716,29.8671834 38.5896786,29.8671834 38.8652745,29.9826403 C38.9915939,30.0352608 39.1052275,30.1142362 39.1985816,30.2142887 C39.2914153,30.3152937 39.3633466,30.4336687 39.4102316,30.5625946 C39.4618156,30.7035052 39.4877781,30.8525069 39.4868923,31.00256 C39.4875401,31.150965 39.4615758,31.2982841 39.4102316,31.4375258 Z" id="Shape" fill="#1D1D1B"></path>
                <path d="M27.271187,30.2009564 C27.3686981,30.1032395 27.4848872,30.026158 27.6128268,29.9743076 C27.7490634,29.9201497 27.8945259,29.8929816 28.0411264,29.8943139 C28.201828,29.8929012 28.3615078,29.9199847 28.512756,29.9743076 C28.6469969,30.0236119 28.7707956,30.097665 28.8777272,30.1926237 L29.2393654,29.5910044 C29.1009573,29.4794662 28.9464348,29.3895622 28.7810682,29.3243587 C28.3054433,29.137636 27.7768095,29.137636 27.3011846,29.3243587 C26.8600348,29.4964976 26.5084233,29.8414863 26.3279279,30.2792836 C26.1413009,30.7411039 26.1413009,31.2573499 26.3279279,31.7191703 C26.5097274,32.1560872 26.8608902,32.5006356 27.3011846,32.6740951 C27.7772388,32.8585357 28.305014,32.8585357 28.7810682,32.6740951 C28.9458048,32.6075984 29.1001442,32.5178009 29.2393654,32.4074494 L28.8777272,31.8058301 C28.7707059,31.9002583 28.6469032,31.9737484 28.512756,32.0224797 C28.3616016,32.0773361 28.2019249,32.1049833 28.0411264,32.10414 C27.8944199,32.1049001 27.7489616,32.0771668 27.6128268,32.0224797 C27.4845147,31.971338 27.36819,31.8941665 27.271187,31.7958309 C27.1730089,31.6961313 27.0959254,31.5776722 27.0445382,31.447525 C26.9334978,31.1589736 26.9334978,30.8394803 27.0445382,30.5509289 C27.0962888,30.4204764 27.1733145,30.3015395 27.271187,30.2009564 Z" id="Shape" fill="#1D1D1B"></path>
                <path d="M41.776712,32.2174644 C41.824808,32.2173721 41.8724258,32.227009 41.916701,32.2457955 C41.9592494,32.2636371 41.99821,32.2890462 42.031692,32.3207896 C42.064618,32.35237 42.0907102,32.3903738 42.1083526,32.4324475 C42.1279507,32.47529 42.1376346,32.5220007 42.1366837,32.5691034 C42.1374653,32.6161903 42.1277891,32.662864 42.1083526,32.7057593 C42.0904673,32.7477 42.0644067,32.7856579 42.031692,32.8174172 C41.9982998,32.849698 41.9593419,32.87567 41.916701,32.8940778 C41.8723202,32.9123375 41.8246977,32.9214084 41.776712,32.9207424 C41.7276348,32.9215374 41.6788975,32.91247 41.63339,32.8940778 C41.5467703,32.8590516 41.4773552,32.7914317 41.4400719,32.7057593 C41.421988,32.6624931 41.412915,32.6159942 41.4134073,32.5691034 C41.412576,32.5221822 41.4216624,32.4756144 41.4400719,32.4324475 C41.4581109,32.3905914 41.484152,32.3526619 41.5167325,32.3207896 C41.5870981,32.2545378 41.6800653,32.2175893 41.776712,32.2174644 Z M41.776712,32.8240833 C41.8105113,32.8242247 41.8439789,32.8174177 41.8750376,32.8040849 C41.9048802,32.7908691 41.9320056,32.7722203 41.9550313,32.7490892 C41.9776569,32.7259968 41.9957465,32.6988623 42.0083605,32.6690955 C42.0216915,32.6374514 42.0284936,32.6034406 42.0283589,32.5691034 C42.0286457,32.53529 42.0218327,32.5017928 42.0083605,32.4707778 C41.9961571,32.4403 41.9780312,32.4125446 41.9550313,32.3891175 C41.9315005,32.3670383 41.9044688,32.3490171 41.8750376,32.3357884 C41.8439789,32.3224556 41.8105113,32.3156486 41.776712,32.31579 C41.7418187,32.3154758 41.7072277,32.3222806 41.6750534,32.3357884 C41.6453955,32.3486037 41.618296,32.36667 41.5950597,32.3891175 C41.57153,32.4124511 41.5528404,32.4402022 41.540064,32.4707778 C41.5271153,32.5019017 41.520869,32.5354044 41.5217321,32.5691034 C41.5210232,32.6033304 41.5272594,32.637346 41.540064,32.6690955 C41.5532798,32.698938 41.5719286,32.7260635 41.5950597,32.7490892 C41.6177889,32.7725735 41.6449873,32.7912724 41.6750534,32.8040849 C41.7067374,32.8198905 41.7413493,32.828969 41.776712,32.8307495 L41.776712,32.8240833 Z M41.7967105,32.412449 C41.8315819,32.4097092 41.8661764,32.4204454 41.8933695,32.4424467 C41.9161236,32.4604524 41.9285828,32.4884855 41.9267002,32.5174408 C41.9279966,32.5408656 41.9195528,32.5637845 41.9033687,32.5807691 C41.8841378,32.5987094 41.8595454,32.6098346 41.8333743,32.6124333 L41.9316998,32.7240912 L41.8300412,32.7240912 L41.7433813,32.6157664 L41.7317156,32.6157664 L41.7317156,32.7240912 L41.6450557,32.7240912 L41.6450557,32.412449 L41.7967105,32.412449 Z M41.7283825,32.4891097 L41.7283825,32.5457719 L41.7950439,32.5457719 C41.8055016,32.5477957 41.8162504,32.5477957 41.8267081,32.5457719 C41.8337667,32.5401818 41.8375273,32.531407 41.8367073,32.5224404 C41.8393053,32.5135164 41.8367377,32.5038878 41.8300412,32.4974424 C41.8196769,32.4946068 41.8087413,32.4946068 41.798377,32.4974424 L41.7283825,32.4891097 Z" id="Shape" fill="#1D1D1B"></path>
                <path d="M21.2183301,2.97809895 C15.8951664,-1.24064682 8.22142342,-0.649981562 3.6065924,4.333714 C-1.00823863,9.31740957 -1.00823863,17.0138514 3.6065924,21.997547 C8.22142342,26.9812425 15.8951664,27.5719078 21.2183301,23.353162 C21.2183301,17.0194938 21.2183301,9.60568931 21.2183301,2.97809895 Z" id="Shape" fill="#E30D17"></path>
                <path d="M21.2183301,2.97143281 C21.2183301,6.78462228 21.2183301,17.4318963 21.2183301,23.3464959 C25.6845932,26.892112 31.9402535,27.1128141 36.6452825,23.8907646 C41.3503115,20.6687151 43.4059781,14.7563357 41.7147187,9.31036998 C40.0234594,3.86440428 34.9802215,0.156608838 29.2776958,0.166653551 C26.3513428,0.163179148 23.5102561,1.15191961 21.2183301,2.97143281 Z" id="Shape" fill="#F69F00"></path>
                <path d="M21.2183301,23.3464959 C24.5069601,20.3057537 26.1512751,16.9099099 26.1512751,13.1589643 C26.1512751,9.40801881 24.5069601,6.01217496 21.2183301,2.97143281 C17.9297,6.01217496 16.285385,9.40801881 16.285385,13.1589643 C16.285385,16.9099099 17.9297,20.3057537 21.2183301,23.3464959 Z" id="Oval" fill="#EB610A"></path>
            </g>
        </g>
    </g>
</svg>
