<svg xmlns="http://www.w3.org/2000/svg" viewBox="0 0 252.93 196.54"><defs><style>.cls-1{fill:#1d1d1b;}.cls-2{fill:#e30d17;}.cls-3{fill:#eb610a;}.cls-4{fill:#f69f00;}</style></defs><title>mastercard</title><g id="Layer_2" data-name="Layer 2"><g id="Layer_1-2" data-name="Layer 1"><path class="cls-1" d="M43.34,176.42a7.81,7.81,0,0,0-2.58-1.69,8.74,8.74,0,0,0-3.28-.61,12.25,12.25,0,0,0-1.95.17,8.35,8.35,0,0,0-2,.57A7.42,7.42,0,0,0,31.7,176a6.6,6.6,0,0,0-1.53,1.83,7.44,7.44,0,0,0-2.83-2.71,8.31,8.31,0,0,0-4.09-1,10,10,0,0,0-1.6.14,7.86,7.86,0,0,0-1.64.49,6.42,6.42,0,0,0-1.55.94,6.56,6.56,0,0,0-1.35,1.5v-2.53H12.76v20.69h4.39V183.88a6.18,6.18,0,0,1,.42-2.34,5.18,5.18,0,0,1,1.12-1.72,4.59,4.59,0,0,1,1.64-1,5.5,5.5,0,0,1,2-.36,4.33,4.33,0,0,1,3.44,1.4,5.93,5.93,0,0,1,1.22,4v11.51h4.39V183.88a6.18,6.18,0,0,1,.42-2.34,5.18,5.18,0,0,1,1.12-1.72,4.59,4.59,0,0,1,1.64-1,5.56,5.56,0,0,1,2-.36,4.32,4.32,0,0,1,3.43,1.4,5.93,5.93,0,0,1,1.23,4v11.51h4.38v-13A8.88,8.88,0,0,0,45,179,7.71,7.71,0,0,0,43.34,176.42Z"/><path class="cls-1" d="M66.48,177.17A8,8,0,0,0,63.8,175a8.1,8.1,0,0,0-3.82-.84,10.06,10.06,0,0,0-7.34,3.07,10.4,10.4,0,0,0-2.2,3.44,12.36,12.36,0,0,0,0,8.75,10.3,10.3,0,0,0,2.2,3.44A10.06,10.06,0,0,0,60,195.89a8.22,8.22,0,0,0,3.82-.82,8,8,0,0,0,2.68-2.2v2.48H71V174.66H66.48Zm-.17,10.47a6.21,6.21,0,0,1-1.28,2.1,5.87,5.87,0,0,1-2,1.39,6.18,6.18,0,0,1-2.55.51,6.25,6.25,0,0,1-2.62-.53,5.88,5.88,0,0,1-2-1.43,6.36,6.36,0,0,1-1.23-2.1,7.58,7.58,0,0,1-.43-2.57,7.5,7.5,0,0,1,.43-2.57,6.41,6.41,0,0,1,1.23-2.11,6,6,0,0,1,2-1.42,6.1,6.1,0,0,1,2.62-.53,6.18,6.18,0,0,1,2.55.51,5.73,5.73,0,0,1,2,1.39,6.26,6.26,0,0,1,1.28,2.09,7.54,7.54,0,0,1,.45,2.64A7.45,7.45,0,0,1,66.31,187.64Z"/><path class="cls-1" d="M91.74,185a11.11,11.11,0,0,0-5.29-2l-2.14-.32c-.47-.08-.92-.16-1.34-.25a4.7,4.7,0,0,1-1.08-.38,2.06,2.06,0,0,1-.72-.61,1.46,1.46,0,0,1-.27-.9,2,2,0,0,1,1-1.78,5.11,5.11,0,0,1,2.88-.68,10.13,10.13,0,0,1,1.91.17,15,15,0,0,1,1.78.43,12.27,12.27,0,0,1,1.53.57,12.44,12.44,0,0,1,1.17.6l1.94-3.52a13.26,13.26,0,0,0-3.78-1.61,18,18,0,0,0-4.6-.57,12.59,12.59,0,0,0-3.56.46,8.15,8.15,0,0,0-2.69,1.32,5.68,5.68,0,0,0-1.7,2.08,6.23,6.23,0,0,0-.6,2.77,5.11,5.11,0,0,0,1.78,4,9.91,9.91,0,0,0,5.24,2l2.16.28a6.88,6.88,0,0,1,2.72.83,1.71,1.71,0,0,1,.87,1.46,2.07,2.07,0,0,1-1.19,1.85,7.29,7.29,0,0,1-3.52.68,14.14,14.14,0,0,1-2.28-.17,11.48,11.48,0,0,1-1.84-.47,8.92,8.92,0,0,1-1.49-.67,11.73,11.73,0,0,1-1.22-.81l-2.09,3.39a10.94,10.94,0,0,0,2.35,1.36,15.28,15.28,0,0,0,2.42.81,14,14,0,0,0,2.25.39c.7.07,1.32.1,1.86.1a14.68,14.68,0,0,0,4-.5,8.93,8.93,0,0,0,3-1.39A6.11,6.11,0,0,0,93,191.84a5.84,5.84,0,0,0,.64-2.73A4.92,4.92,0,0,0,91.74,185Z"/><path class="cls-1" d="M134,177.14a8.94,8.94,0,0,0-3.09-2.23,9.86,9.86,0,0,0-4-.79,10.85,10.85,0,0,0-4.18.79,9.47,9.47,0,0,0-3.25,2.23,10.08,10.08,0,0,0-2.12,3.44,12.6,12.6,0,0,0-.75,4.43,12.26,12.26,0,0,0,.77,4.47,10,10,0,0,0,2.18,3.43,9.67,9.67,0,0,0,3.35,2.2,11.4,11.4,0,0,0,4.28.78,15.36,15.36,0,0,0,4.48-.65,11.1,11.1,0,0,0,4-2.26l-2.24-3.22a10.08,10.08,0,0,1-2.86,1.61,9.12,9.12,0,0,1-3.12.57,7.44,7.44,0,0,1-2.12-.3,5.48,5.48,0,0,1-1.83-.94,5.75,5.75,0,0,1-1.41-1.63,6.78,6.78,0,0,1-.8-2.4h15.29c0-.26.05-.53.07-.82s0-.58,0-.86a12.69,12.69,0,0,0-.73-4.42A10.37,10.37,0,0,0,134,177.14Zm-12.63,6.1a7.91,7.91,0,0,1,.61-2.07,5.63,5.63,0,0,1,1.11-1.61,4.54,4.54,0,0,1,1.62-1.05,5.77,5.77,0,0,1,2.15-.37,4.82,4.82,0,0,1,3.52,1.34,6.45,6.45,0,0,1,1.73,3.76Z"/><path class="cls-1" d="M194,177.17a7.88,7.88,0,0,0-6.5-3,10.06,10.06,0,0,0-7.34,3.07,10.43,10.43,0,0,0-2.21,3.44,12.36,12.36,0,0,0,0,8.75,10.33,10.33,0,0,0,2.21,3.44,10,10,0,0,0,3.28,2.26,10.12,10.12,0,0,0,4.06.81,8.25,8.25,0,0,0,3.82-.82,8.08,8.08,0,0,0,2.68-2.2v2.48h4.51V174.66H194Zm-.18,10.47a6.18,6.18,0,0,1-1.27,2.1,5.91,5.91,0,0,1-2,1.39,6.16,6.16,0,0,1-2.54.51,6.3,6.3,0,0,1-2.63-.53,5.74,5.74,0,0,1-2-1.43,6.36,6.36,0,0,1-1.23-2.1,7.58,7.58,0,0,1-.43-2.57,7.5,7.5,0,0,1,.43-2.57,6.41,6.41,0,0,1,1.23-2.11,5.85,5.85,0,0,1,2-1.42,6.69,6.69,0,0,1,5.17,0,5.77,5.77,0,0,1,2,1.39,6.24,6.24,0,0,1,1.27,2.09,7.32,7.32,0,0,1,.46,2.64A7.23,7.23,0,0,1,193.78,187.64Z"/><path class="cls-1" d="M111.09,191.23a6.15,6.15,0,0,1-2.15.41,3.55,3.55,0,0,1-1.28-.22,2.65,2.65,0,0,1-1-.68,3.34,3.34,0,0,1-.7-1.2,5.42,5.42,0,0,1-.26-1.77v-9h7.25v-4.11h-7.25V168.4h-4.53v6.26H97v4.11h4.13v9.09c0,2.75.65,4.77,2,6.08a7.41,7.41,0,0,0,5.47,1.95,9.88,9.88,0,0,0,3.54-.6,14.2,14.2,0,0,0,1.92-.91l-1.54-3.78A13.43,13.43,0,0,1,111.09,191.23Z"/><path class="cls-1" d="M151.84,174.12a8.17,8.17,0,0,0-3.44.7,7.4,7.4,0,0,0-2.57,2.56v-2.72h-4.09v20.69h4.14V184a6.86,6.86,0,0,1,.37-2.35,5,5,0,0,1,1-1.75,4.1,4.1,0,0,1,1.55-1.08,5.18,5.18,0,0,1,2-.37,8.81,8.81,0,0,1,1.77.2,6,6,0,0,1,.91.24l1.33-4.32a10.42,10.42,0,0,0-1.1-.28A11.78,11.78,0,0,0,151.84,174.12Z"/><path class="cls-1" d="M214.58,174.12a8.14,8.14,0,0,0-3.44.7,7.32,7.32,0,0,0-2.57,2.56v-2.72h-4.1v20.69h4.15V184a7.12,7.12,0,0,1,.36-2.35,5.18,5.18,0,0,1,1-1.75,4.1,4.1,0,0,1,1.55-1.08,5.18,5.18,0,0,1,2-.37,8.81,8.81,0,0,1,1.77.2,6.38,6.38,0,0,1,.91.24l1.33-4.32a10,10,0,0,0-1.11-.28A11.55,11.55,0,0,0,214.58,174.12Z"/><path class="cls-1" d="M235.66,166.26v10.91a7.88,7.88,0,0,0-6.5-3,10.11,10.11,0,0,0-7.35,3.07,10.56,10.56,0,0,0-2.2,3.44,12.36,12.36,0,0,0,0,8.75,10.46,10.46,0,0,0,2.2,3.44,10.11,10.11,0,0,0,7.35,3.07,8.25,8.25,0,0,0,3.82-.82,8.08,8.08,0,0,0,2.68-2.2v2.48h4.51V166.26Zm-.18,21.38a6.18,6.18,0,0,1-1.27,2.1,5.91,5.91,0,0,1-2,1.39,6.16,6.16,0,0,1-2.54.51,6.3,6.3,0,0,1-2.63-.53,5.74,5.74,0,0,1-1.95-1.43,6,6,0,0,1-1.23-2.1,7.58,7.58,0,0,1-.44-2.57,7.5,7.5,0,0,1,.44-2.57,6.08,6.08,0,0,1,1.23-2.11,5.85,5.85,0,0,1,1.95-1.42,6.69,6.69,0,0,1,5.17,0,5.77,5.77,0,0,1,2,1.39,6.24,6.24,0,0,1,1.27,2.09,7.55,7.55,0,0,1,.46,2.64A7.45,7.45,0,0,1,235.48,187.64Z"/><path class="cls-1" d="M162.64,180.22a6.17,6.17,0,0,1,2.05-1.36,6.79,6.79,0,0,1,2.57-.48h0a8.16,8.16,0,0,1,2.83.48,6.86,6.86,0,0,1,2.19,1.31l2.17-3.61a10.55,10.55,0,0,0-2.75-1.6,12.15,12.15,0,0,0-8.88,0,10.41,10.41,0,0,0-5.84,5.73,11.53,11.53,0,0,0,0,8.64,10.49,10.49,0,0,0,5.84,5.73,12.29,12.29,0,0,0,8.88,0,11.14,11.14,0,0,0,2.75-1.6l-2.17-3.61a6.84,6.84,0,0,1-2.19,1.3,8.17,8.17,0,0,1-2.83.49h0a6.8,6.8,0,0,1-2.57-.49,6,6,0,0,1-2.05-1.36,6.25,6.25,0,0,1-1.36-2.09,7.49,7.49,0,0,1,0-5.38A6.39,6.39,0,0,1,162.64,180.22Z"/><path class="cls-1" d="M249.68,192.32a2.14,2.14,0,0,1,.84.17,2.29,2.29,0,0,1,.69.45,2,2,0,0,1,.46.67,1.88,1.88,0,0,1,.17.82,1.91,1.91,0,0,1-.17.82,2.06,2.06,0,0,1-.46.67,2.31,2.31,0,0,1-.69.46,2.13,2.13,0,0,1-.84.16,2.2,2.2,0,0,1-.86-.16,2.14,2.14,0,0,1-1.16-1.13,2.07,2.07,0,0,1-.16-.82,2,2,0,0,1,.16-.82,2.1,2.1,0,0,1,.46-.67,2.28,2.28,0,0,1,1.56-.62Zm0,3.64a1.48,1.48,0,0,0,.59-.12,1.58,1.58,0,0,0,.48-.33,1.55,1.55,0,0,0,.32-.48,1.53,1.53,0,0,0,.12-.6,1.45,1.45,0,0,0-.12-.59,1.49,1.49,0,0,0-.32-.49,1.75,1.75,0,0,0-.48-.32,1.48,1.48,0,0,0-.59-.12,1.54,1.54,0,0,0-.61.12,1.61,1.61,0,0,0-.48.32,1.51,1.51,0,0,0-.33.49,1.44,1.44,0,0,0-.11.59,1.52,1.52,0,0,0,.11.6,1.58,1.58,0,0,0,.33.48,1.47,1.47,0,0,0,.48.33A1.54,1.54,0,0,0,249.68,196Zm.12-2.47a.82.82,0,0,1,.58.18.53.53,0,0,1,.2.45.51.51,0,0,1-.14.38.72.72,0,0,1-.42.19l.59.67H250l-.52-.65h-.07v.65h-.52v-1.87Zm-.41.46v.34h.4a.5.5,0,0,0,.19,0,.16.16,0,0,0,.06-.14A.15.15,0,0,0,250,194a.36.36,0,0,0-.19,0Z"/><path class="cls-2" d="M96.72,78a77.82,77.82,0,0,1,29.6-61.13,78,78,0,1,0,0,122.26A77.81,77.81,0,0,1,96.72,78Z"/><ellipse class="cls-3" cx="126.32" cy="77.96" rx="29.6" ry="61.13"/><path class="cls-4" d="M247.36,120.13v-2.28h-.92v-.62H249v.62H248v2.28Zm4.89,0v-2l-.66,1.74h-.72l-.65-1.74v2h-.69v-2.9h1l.72,1.86.72-1.86h1v2.9Z"/><path class="cls-4" d="M174.68,0a77.63,77.63,0,0,0-48.36,16.83,77.91,77.91,0,0,1,0,122.26A78,78,0,1,0,174.68,0Z"/></g></g></svg>