<svg xmlns="http://www.w3.org/2000/svg" viewBox="0 0 441.21 107.74"><defs><style>.cls-1,.cls-2,.cls-3{fill:none;}.cls-2{clip-rule:evenodd;}.cls-3{fill-rule:evenodd;}.cls-4{clip-path:url(#clip-path);}.cls-5{fill:#253b80;}.cls-6{fill:#179bd7;}.cls-7{fill:#222d65;}.cls-8{clip-path:url(#clip-path-4);}</style><clipPath id="clip-path" transform="translate(0)"><rect id="_Clipping_Path_" data-name="&lt;Clipping Path&gt;" class="cls-1" width="442.69" height="117.81"/></clipPath><clipPath id="clip-path-4" transform="translate(0)"><polyline id="_Clipping_Path_4" data-name="&lt;Clipping Path&gt;" class="cls-2" points="442.69 0 442.69 117.81 0 117.81 0 0"/></clipPath></defs><path id="_Compound_Path_" data-name="&lt;Compound Path&gt;" class="cls-5" d="M167.79,47c-1.33,8.76-8,8.76-14.5,8.76h-3.68l2.58-16.36a2,2,0,0,1,2-1.72h1.69c4.41,0,8.57,0,10.72,2.52C167.89,41.66,168.28,43.88,167.79,47ZM165,24.09H140.56A3.4,3.4,0,0,0,137.21,27l-9.88,62.61a2,2,0,0,0,2,2.35H141a3.4,3.4,0,0,0,3.36-2.87L147,72.16a3.39,3.39,0,0,1,3.35-2.86h7.73c16.08,0,25.36-7.79,27.79-23.21,1.09-6.75,0-12.05-3.12-15.76C179.3,26.25,173.15,24.09,165,24.09Z" transform="translate(0)"/><path id="_Compound_Path_2" data-name="&lt;Compound Path&gt;" class="cls-5" d="M221.66,69.43A13,13,0,0,1,208.47,80.6c-3.39,0-6.11-1.09-7.85-3.15a9.94,9.94,0,0,1-1.83-8.22A13.08,13.08,0,0,1,211.89,58a9.87,9.87,0,0,1,7.8,3.18A10.13,10.13,0,0,1,221.66,69.43ZM238,46.68H226.27a2,2,0,0,0-2,1.72l-.52,3.27-.82-1.19c-2.53-3.67-8.17-4.9-13.81-4.9-12.92,0-24,9.78-26.1,23.51-1.12,6.85.47,13.4,4.36,18,3.56,4.2,8.66,6,14.72,6a22.4,22.4,0,0,0,16.19-6.69l-.53,3.25a2,2,0,0,0,2,2.35h10.53a3.38,3.38,0,0,0,3.35-2.86L240,49A2,2,0,0,0,238,46.68Z" transform="translate(0)"/><path id="_Path_" data-name="&lt;Path&gt;" class="cls-5" d="M300.23,46.68H288.48a3.42,3.42,0,0,0-2.81,1.49L269.47,72,262.6,49.1a3.4,3.4,0,0,0-3.26-2.42H247.8a2,2,0,0,0-1.93,2.69l12.94,38-12.17,17.18a2,2,0,0,0,1.66,3.21H260a3.37,3.37,0,0,0,2.79-1.46L301.9,49.87A2,2,0,0,0,300.23,46.68Z" transform="translate(0)"/><path id="_Compound_Path_3" data-name="&lt;Compound Path&gt;" class="cls-6" d="M342,47c-1.33,8.76-8,8.76-14.5,8.76h-3.69l2.59-16.36a2,2,0,0,1,2-1.72h1.69c4.4,0,8.57,0,10.72,2.52C342.05,41.66,342.44,43.88,342,47Zm-2.82-22.87H314.71A3.4,3.4,0,0,0,311.36,27l-9.87,62.61a2,2,0,0,0,2,2.35H316a2.38,2.38,0,0,0,2.35-2l2.8-17.75a3.39,3.39,0,0,1,3.35-2.86h7.72c16.09,0,25.37-7.79,27.8-23.21,1.09-6.75,0-12.05-3.12-15.76C353.45,26.25,347.3,24.09,339.13,24.09Z" transform="translate(0)"/><path id="_Compound_Path_4" data-name="&lt;Compound Path&gt;" class="cls-6" d="M395.81,69.43A13,13,0,0,1,382.62,80.6c-3.39,0-6.11-1.09-7.85-3.15a9.94,9.94,0,0,1-1.83-8.22A13.09,13.09,0,0,1,386,58a9.84,9.84,0,0,1,7.79,3.18A10.06,10.06,0,0,1,395.81,69.43Zm16.3-22.75H400.43a2,2,0,0,0-2,1.72l-.52,3.27-.82-1.19c-2.53-3.67-8.17-4.9-13.81-4.9-12.92,0-23.95,9.78-26.1,23.51-1.11,6.85.47,13.4,4.36,18,3.57,4.2,8.66,6,14.72,6a22.4,22.4,0,0,0,16.19-6.69l-.53,3.25a2,2,0,0,0,2,2.35h10.53a3.38,3.38,0,0,0,3.34-2.86l6.33-40A2,2,0,0,0,412.11,46.68Z" transform="translate(0)"/><path id="_Path_2" data-name="&lt;Path&gt;" class="cls-6" d="M425.89,25.81l-10,63.76a2,2,0,0,0,2,2.35H428a3.4,3.4,0,0,0,3.36-2.87l9.88-62.61a2,2,0,0,0-2-2.35H427.9A2,2,0,0,0,425.89,25.81Z" transform="translate(0)"/><path id="_Path_3" data-name="&lt;Path&gt;" class="cls-5" d="M25.94,104.08l1.87-11.86-4.16-.09H3.79L17.59,4.61A1.1,1.1,0,0,1,18,3.93a1.08,1.08,0,0,1,.73-.27H52.2C63.32,3.66,71,6,75,10.54a15.69,15.69,0,0,1,3.66,6.84,24.92,24.92,0,0,1,0,9.44l0,.27v2.42l1.88,1.06a13.28,13.28,0,0,1,3.8,2.9,13.55,13.55,0,0,1,3.08,6.92,28.93,28.93,0,0,1-.44,10,35.13,35.13,0,0,1-4.11,11.36,23.4,23.4,0,0,1-6.51,7.14,26.63,26.63,0,0,1-8.78,4,43.84,43.84,0,0,1-11,1.27H54a7.82,7.82,0,0,0-7.75,6.61L46,81.84l-3.3,20.9-.15.77a.68.68,0,0,1-.21.45.56.56,0,0,1-.34.12Z" transform="translate(0)"/><path id="_Path_4" data-name="&lt;Path&gt;" class="cls-6" d="M82.28,27.37c-.1.64-.21,1.29-.34,2C77.52,52,62.42,59.84,43.12,59.84H33.29a4.77,4.77,0,0,0-4.71,4l-5,31.91-1.43,9a2.51,2.51,0,0,0,2.49,2.9H42a4.18,4.18,0,0,0,4.14-3.53l.17-.89,3.28-20.82.21-1.14A4.2,4.2,0,0,1,54,77.81h2.6c16.89,0,30.1-6.85,34-26.69,1.62-8.29.78-15.21-3.49-20.07A16.47,16.47,0,0,0,82.28,27.37Z" transform="translate(0)"/><path id="_Path_5" data-name="&lt;Path&gt;" class="cls-7" d="M77.66,25.53c-.67-.2-1.37-.38-2.08-.54s-1.45-.29-2.21-.41a54.33,54.33,0,0,0-8.66-.64H38.46a4.19,4.19,0,0,0-4.14,3.55L28.74,62.85l-.16,1a4.77,4.77,0,0,1,4.71-4h9.83c19.3,0,34.4-7.83,38.82-30.5.13-.68.24-1.33.34-2a23,23,0,0,0-3.63-1.53Z" transform="translate(0)"/><path id="_Path_6" data-name="&lt;Path&gt;" class="cls-5" d="M34.32,27.49a4.18,4.18,0,0,1,2.33-3.13A4.07,4.07,0,0,1,38.46,24H64.71a54.38,54.38,0,0,1,8.66.63c.76.12,1.49.26,2.21.42s1.41.34,2.08.53l1,.31a23.83,23.83,0,0,1,3.63,1.53c1.31-8.38,0-14.08-4.54-19.25C72.75,2.43,63.74,0,52.2,0H18.71A4.79,4.79,0,0,0,14,4L0,92.46a2.87,2.87,0,0,0,2.83,3.33H23.55l5.19-32.94Z" transform="translate(0)"/></svg>
