<svg xmlns="http://www.w3.org/2000/svg" viewBox="0 0 525.29 100"><defs><style>.cls-1{fill:red;}</style></defs><path class="cls-1" d="M25.3,52.88,10.67,85.73H0L16.07,50.6C8.51,46.76,3.48,39.81,3.48,27,3.48,9,14.87,0,28.42,0H42.21V85.73H33V52.88ZM33,7.79H28.06c-7.44,0-14.63,4.92-14.63,19.19C13.43,40.77,20,45.2,28.06,45.2H33Z"/><path d="M86.7,25.3V85.73H77.47V58.63H63.56v27.1H54.21V25.3h9.35V51H77.47V25.3Zm48.08,72.3h-8.39V85.73h-25.9V97.6H92.1V78.06h3.72c5.51-12.83,6.11-31.54,6.11-47.6V25.3H130V78.06h4.79Zm-14-64.75H110.32v1.08c0,12.71-.6,31.3-5.63,44.13h16.06Zm39.81,53.72c-12.47,0-20.14-9.95-20.14-28.53,0-19.43,5.4-33.58,18.23-33.58,10.07,0,16.66,7.55,16.66,28.06v5.15H150.13c0,13.67,3.84,20.87,11.27,20.87a20.94,20.94,0,0,0,11.87-4.08l2.16,7.19A23.77,23.77,0,0,1,160.56,86.57ZM150.25,50h15.47c0-10.31-1.68-17.87-7.07-17.87C152.89,32.13,150.85,39.21,150.25,50Zm44,5.63v30.1H184.9V25.3h9.36V53.24l14.5-27.94h9.48l-15,28.42,17.14,32H210.2Zm27.33-.11c0-19,7.32-31.06,21.47-31.06a19,19,0,0,1,11.15,3.12l-1.32,8.87c-2.52-2.16-6.12-4.2-9.95-4.2-6.72,0-11.51,7.56-11.51,22.79S235,78.78,242.58,78.78a15.28,15.28,0,0,0,10.19-3.72l2.16,7a18.3,18.3,0,0,1-12.59,4.56C229.39,86.57,221.59,76.14,221.59,55.52Z"/><path d="M318.53,85.73H281.84L281,100h-4.68V80.82h2.52c4.2-3.48,6.23-13.07,7.43-25.3,1.2-12.71,1.56-31.66,1.92-55.52h30V80.82H324V100h-4.67ZM312.17,4.92H293.59c-.36,21.7-1,38.24-1.92,50.6-1.08,12.82-3,21.34-6.24,25.3h26.74Z"/><path d="M348.87,82a15.39,15.39,0,0,0,12.23-6.47l1.8,4.55a17.44,17.44,0,0,1-14.15,6.84c-12.82,0-18.7-11.63-18.7-31.41s7.43-31.42,17.63-31.42c10.43,0,17.14,10.91,15.22,32.38H335.56C335.81,73,340.12,82,348.87,82ZM335.68,52h21.95c1-16.07-3.84-23.26-9.95-23.26C341.32,28.78,336.16,36.93,335.68,52Z"/><path d="M399.84,56.59H379.22V85.73h-5.64V25.3h5.64V52h20.62V25.3h5.64V85.73h-5.64Z"/><path d="M418.8,25.3h5.63V47.72h4.44c11.51,0,18.94,6.24,18.94,18.83,0,12.83-7.91,19.18-19.3,19.18H418.8Zm5.63,26.86V81.29H428c8.51,0,14.27-4.19,14.27-14.62,0-10.19-5-14.51-13.67-14.51Z"/><path d="M463.05,30V85.73h-5.52V25.3h25.54V30Z"/><path d="M519.89,43.65c0-3.12.24-5.76.48-8.28H520a53.15,53.15,0,0,1-3.24,7.79L497.11,85.73h-4.79V25.3h5.27v42c0,3.23-.24,5.87-.48,8.51h.36a63.87,63.87,0,0,1,3.24-8L520.37,25.3h4.92V85.73h-5.4Z"/></svg>
